<svg width="493" height="728" viewBox="0 0 493 728" fill="none" xmlns="http://www.w3.org/2000/svg">
<path d="M163.512 183.769C8.68146 262.175 98.1652 420.847 162.261 490.381C355.11 652.451 414.449 454.591 331.29 324.77C248.131 194.949 536.35 253.604 522.171 62.1195C505.729 -159.914 357.049 85.762 163.512 183.769Z" stroke="#CECECE" stroke-width="0.5"/>
<path opacity="0.95875" d="M169.354 189.58C11.8814 262.534 95.7731 424.232 157.403 495.961C344.478 664.662 410.687 468.994 332.109 336.35C253.531 203.705 539.528 272.383 532.04 80.5208C523.357 -141.952 366.194 98.3862 169.354 189.58Z" stroke="#CECECE" stroke-width="0.5"/>
<path opacity="0.9175" d="M174.989 195.59C15.067 263.005 93.2643 427.531 152.353 501.368C333.427 676.495 406.424 483.256 332.523 347.951C258.623 212.645 542.048 291.262 541.261 99.2553C540.348 -123.385 374.892 111.322 174.989 195.59Z" stroke="#CECECE" stroke-width="0.5"/>
<path opacity="0.87625" d="M180.412 201.794C18.2341 263.586 90.6419 430.741 147.118 506.595C321.969 687.935 401.666 497.362 332.532 359.559C263.399 221.757 543.908 310.218 549.822 118.3C556.68 -104.236 383.134 124.553 180.412 201.794Z" stroke="#CECECE" stroke-width="0.5"/>
<path opacity="0.835" d="M185.614 208.183C21.379 264.277 87.9091 433.858 141.704 511.637C310.12 698.968 396.419 511.292 332.136 371.161C267.854 231.03 545.106 329.227 557.714 137.632C572.333 -84.529 390.908 138.064 185.614 208.183Z" stroke="#CECECE" stroke-width="0.5"/>
<path opacity="0.79375" d="M190.591 214.749C24.4979 265.078 85.0692 436.877 136.116 516.486C297.892 709.581 390.688 525.031 331.336 382.742C271.983 240.453 545.639 348.266 564.926 157.228C587.29 -64.2877 398.207 151.838 190.591 214.749Z" stroke="#CECECE" stroke-width="0.5"/>
<path opacity="0.7525" d="M195.335 221.486C27.587 265.987 82.1256 439.796 130.363 521.137C285.302 719.761 384.482 538.562 330.132 394.288C275.781 250.014 545.507 367.312 571.449 177.064C601.531 -43.5368 405.02 165.859 195.335 221.486Z" stroke="#CECECE" stroke-width="0.5"/>
<path opacity="0.71125" d="M199.841 228.383C30.6424 267.004 79.082 442.61 124.452 525.585C272.364 729.495 377.807 551.868 328.525 405.785C279.243 259.702 544.711 386.342 577.277 197.115C615.039 -22.3015 411.34 180.108 199.841 228.383Z" stroke="#CECECE" stroke-width="0.5"/>
<path opacity="0.67" d="M204.104 235.434C33.6605 268.126 75.942 445.316 118.388 529.824C259.094 738.772 370.672 564.932 326.518 417.219C282.364 269.505 543.251 405.332 582.401 217.357C627.797 -0.607763 417.159 194.57 204.104 235.434Z" stroke="#CECECE" stroke-width="0.5"/>
<path opacity="0.62875" d="M208.119 242.63C36.6382 269.353 72.7101 447.91 112.181 533.849C245.509 747.579 363.086 577.74 324.114 428.576C285.142 279.411 541.13 424.26 586.816 237.766C639.792 21.5181 422.47 209.226 208.119 242.63Z" stroke="#CECECE" stroke-width="0.5"/>
<path opacity="0.5875" d="M211.879 249.961C39.5701 270.683 69.3885 450.391 105.836 537.654C231.624 755.908 355.057 590.275 321.314 439.842C287.572 289.408 538.348 443.102 590.515 258.316C651.006 44.0491 427.265 224.058 211.879 249.961Z" stroke="#CECECE" stroke-width="0.5"/>
<path opacity="0.54625" d="M215.381 257.419C42.4538 272.115 65.9823 452.754 99.3625 541.236C217.456 763.747 346.595 602.523 318.123 451.003C289.651 299.483 534.911 461.836 593.495 278.983C661.426 66.9576 431.54 239.048 215.381 257.419Z" stroke="#CECECE" stroke-width="0.5"/>
<path opacity="0.505" d="M218.621 264.994C45.2863 273.647 62.4963 454.996 92.7682 544.59C203.025 771.086 337.711 614.467 314.544 462.046C291.378 309.625 530.822 480.438 595.752 299.741C671.042 90.216 435.29 254.179 218.621 264.994Z" stroke="#CECECE" stroke-width="0.5"/>
<path opacity="0.46375" d="M221.596 272.678C48.0647 275.276 58.9352 457.116 86.0619 547.711C188.347 777.918 328.417 626.095 310.584 472.958C292.751 319.821 526.088 498.887 597.285 320.566C679.84 113.796 438.51 269.431 221.596 272.678Z" stroke="#CECECE" stroke-width="0.5"/>
<path opacity="0.4225" d="M224.299 280.461C50.7824 277.001 55.3002 459.11 79.2486 550.597C173.437 784.232 318.72 637.39 306.242 483.725C293.765 330.059 520.71 517.159 598.087 341.431C687.809 137.668 441.194 284.786 224.299 280.461Z" stroke="#CECECE" stroke-width="0.5"/>
<path opacity="0.38125" d="M226.73 288.334C53.4404 278.821 51.6 460.976 72.3409 553.243C158.318 790.023 308.638 648.341 301.53 494.333C294.423 340.326 514.701 535.232 598.163 362.312C694.941 161.804 443.342 300.226 226.73 288.334Z" stroke="#CECECE" stroke-width="0.5"/>
<path opacity="0.34" d="M228.883 296.287C56.0312 280.731 47.8347 462.711 65.343 555.646C143.004 795.283 298.177 658.933 296.449 504.771C294.72 350.609 508.062 553.084 597.508 383.182C701.225 186.174 444.948 315.731 228.883 296.287Z" stroke="#CECECE" stroke-width="0.5"/>
<path opacity="0.29875" d="M230.759 304.31C58.5547 282.731 44.0122 464.315 58.2664 557.803C127.517 800.005 287.354 669.153 291.007 515.025C294.66 360.897 500.805 570.694 596.127 404.017C706.656 210.749 446.014 331.283 230.759 304.31Z" stroke="#CECECE" stroke-width="0.5"/>
<path opacity="0.2575" d="M232.353 312.394C61.0069 284.818 40.1361 465.783 51.119 559.713C111.875 804.183 276.181 678.99 285.21 525.083C294.24 371.176 492.938 588.04 594.019 424.791C711.225 235.498 446.535 346.862 232.353 312.394Z" stroke="#CECECE" stroke-width="0.5"/>
<path opacity="0.21625" d="M233.665 320.528C63.3853 286.99 36.2117 467.116 43.9097 561.371C96.0966 807.814 264.672 688.431 279.067 534.933C293.463 381.434 484.471 605.101 591.187 445.479C714.929 260.392 446.514 362.451 233.665 320.528Z" stroke="#CECECE" stroke-width="0.5"/>
<path opacity="0.175" d="M234.691 328.703C65.6854 289.243 32.242 468.311 36.6459 562.778C80.2003 810.891 252.839 697.464 272.583 544.562C292.327 391.659 475.413 621.856 587.635 466.056C717.76 285.399 445.947 378.029 234.691 328.703Z" stroke="#CECECE" stroke-width="0.5"/>
<path opacity="0.13375" d="M235.431 336.909C67.9061 291.574 28.2336 469.366 29.338 563.929C64.2068 813.411 240.699 706.079 265.767 553.959C290.835 401.839 465.776 638.284 583.367 486.496C719.718 310.491 444.837 393.577 235.431 336.909Z" stroke="#CECECE" stroke-width="0.5"/>
<path opacity="0.0925" d="M235.885 345.136C70.044 293.982 24.1908 470.282 21.9943 564.825C48.1351 815.372 228.266 714.264 258.627 563.112C288.989 411.959 455.571 654.366 578.388 506.774C720.798 335.635 443.186 409.078 235.885 345.136Z" stroke="#CECECE" stroke-width="0.5"/>
<path opacity="0.05125" d="M236.051 353.374C72.0965 296.463 20.1186 471.055 14.6239 565.465C32.0048 816.771 215.554 722.011 251.172 572.01C286.791 422.01 444.812 670.083 572.704 526.866C721.001 360.802 440.994 424.511 236.051 353.374Z" stroke="#CECECE" stroke-width="0.5"/>
<path opacity="0.01" d="M235.93 361.612C74.0612 299.015 16.0218 471.686 7.23561 565.846C15.8354 817.606 202.58 729.31 243.412 580.643C284.243 431.977 433.51 685.414 566.323 546.748C720.325 385.96 438.265 439.859 235.93 361.612Z" stroke="#CECECE" stroke-width="0.5"/>
</svg>
