<svg width="199" height="564" viewBox="0 0 199 564" fill="none" xmlns="http://www.w3.org/2000/svg">
<path d="M88.1599 197.675C192.344 250.434 132.131 357.202 89.0016 403.992C-40.7647 513.047 -80.6937 379.908 -24.7367 292.553C31.2202 205.197 -162.72 244.666 -153.179 115.818C-142.116 -33.587 -42.0699 131.727 88.1599 197.675Z" stroke="#CECECE" stroke-width="0.5"/>
<path opacity="0.95875" d="M84.2289 201.584C190.191 250.675 133.741 359.48 92.2704 407.746C-33.6109 521.264 -78.162 389.6 -25.2878 300.345C27.5864 211.09 -164.858 257.303 -159.82 128.2C-153.977 -21.5 -48.2231 140.221 84.2289 201.584Z" stroke="#CECECE" stroke-width="0.5"/>
<path opacity="0.9175" d="M80.4367 205.629C188.047 250.992 135.429 361.7 95.6682 411.384C-26.1747 529.226 -75.2936 399.197 -25.5666 308.151C24.1605 217.105 -166.554 270.006 -166.024 140.806C-165.41 -9.00644 -54.0762 148.926 80.4367 205.629Z" stroke="#CECECE" stroke-width="0.5"/>
<path opacity="0.87625" d="M76.788 209.803C185.916 251.383 137.193 363.86 99.191 414.902C-18.4651 536.924 -72.092 408.688 -25.5728 315.962C20.9465 223.236 -167.806 282.761 -171.785 153.621C-176.399 3.87855 -59.6219 157.829 76.788 209.803Z" stroke="#CECECE" stroke-width="0.5"/>
<path opacity="0.835" d="M73.2872 214.102C183.8 251.848 139.032 365.957 102.834 418.294C-10.4915 544.348 -68.5612 418.062 -25.3063 323.769C17.9485 229.476 -168.611 295.552 -177.095 166.63C-186.933 17.1392 -64.8535 166.92 73.2872 214.102Z" stroke="#CECECE" stroke-width="0.5"/>
<path opacity="0.79375" d="M69.9385 218.521C181.701 252.387 140.943 367.989 106.594 421.557C-2.26375 551.489 -64.7053 427.307 -24.7676 331.562C15.1701 235.817 -168.97 308.363 -181.948 179.815C-196.997 30.7594 -69.7646 176.189 69.9385 218.521Z" stroke="#CECECE" stroke-width="0.5"/>
<path opacity="0.7525" d="M66.7461 223.054C179.622 252.999 142.924 369.953 110.465 424.687C6.20824 558.339 -60.5292 436.412 -23.9573 339.331C12.6147 242.25 -168.882 321.179 -186.338 193.163C-206.579 44.7225 -74.3493 185.623 66.7461 223.054Z" stroke="#CECECE" stroke-width="0.5"/>
<path opacity="0.71125" d="M63.7138 227.695C177.566 253.682 144.972 371.846 114.443 427.68C14.9141 564.889 -56.0378 445.365 -22.8762 347.067C10.2854 248.769 -168.346 333.984 -190.259 206.655C-215.669 59.0115 -78.6019 195.211 63.7138 227.695Z" stroke="#CECECE" stroke-width="0.5"/>
<path opacity="0.67" d="M60.8454 232.44C175.536 254.438 147.085 373.667 118.523 430.532C23.8433 571.131 -51.2368 454.156 -21.5259 354.761C8.18494 255.366 -167.364 346.762 -193.707 220.276C-224.254 73.6091 -82.5174 204.942 60.8454 232.44Z" stroke="#CECECE" stroke-width="0.5"/>
<path opacity="0.62875" d="M58.1439 237.281C173.532 255.263 149.259 375.413 122.7 433.24C32.9845 577.058 -46.1322 462.774 -19.9083 362.403C6.31565 262.031 -165.936 359.499 -196.678 234.008C-232.325 88.4974 -86.0911 214.804 58.1439 237.281Z" stroke="#CECECE" stroke-width="0.5"/>
<path opacity="0.5875" d="M55.6138 242.214C171.559 256.158 151.495 377.082 126.969 435.801C42.3278 582.662 -40.7292 471.209 -18.0242 369.984C4.68085 268.758 -164.064 372.178 -199.167 247.837C-239.871 103.658 -89.3179 224.785 55.6138 242.214Z" stroke="#CECECE" stroke-width="0.5"/>
<path opacity="0.54625" d="M53.2573 247.233C169.619 257.122 153.786 378.672 131.325 438.211C51.8609 587.937 -35.0351 479.45 -15.8767 377.494C3.2818 275.538 -161.751 384.784 -201.172 261.743C-246.883 119.073 -92.1943 234.872 53.2573 247.233Z" stroke="#CECECE" stroke-width="0.5"/>
<path opacity="0.505" d="M51.0771 252.33C167.713 258.152 156.132 380.181 135.763 440.468C61.5719 592.875 -29.0573 487.488 -13.4687 384.925C2.11985 282.362 -159 397.301 -202.691 275.711C-253.353 134.724 -94.7173 245.053 51.0771 252.33Z" stroke="#CECECE" stroke-width="0.5"/>
<path opacity="0.46375" d="M49.0754 257.501C165.843 259.249 158.528 381.607 140.275 442.568C71.4486 597.472 -22.8033 495.312 -10.8036 392.267C1.19604 289.223 -155.815 409.715 -203.722 289.724C-259.273 150.59 -96.8842 255.316 49.0754 257.501Z" stroke="#CECECE" stroke-width="0.5"/>
<path opacity="0.4225" d="M47.2568 262.738C164.014 260.41 160.974 382.949 144.86 444.51C81.4812 601.721 -16.2786 502.913 -7.88247 399.512C0.513701 296.112 -152.196 422.01 -204.262 303.764C-264.635 166.654 -98.6901 265.648 47.2568 262.738Z" stroke="#CECECE" stroke-width="0.5"/>
<path opacity="0.38125" d="M45.6206 268.035C162.226 261.634 163.464 384.205 149.508 446.29C91.6546 605.618 -9.49414 510.281 -4.71171 406.651C0.0707297 303.02 -148.152 434.171 -204.314 317.815C-269.435 182.895 -100.136 276.037 45.6206 268.035Z" stroke="#CECECE" stroke-width="0.5"/>
<path opacity="0.34" d="M44.1718 273.387C160.483 262.92 165.998 385.372 154.217 447.907C101.959 609.157 -2.45515 517.408 -1.29228 413.674C-0.129406 309.94 -143.685 446.184 -203.873 331.858C-273.663 199.293 -101.217 286.471 44.1718 273.387Z" stroke="#CECECE" stroke-width="0.5"/>
<path opacity="0.29875" d="M42.9099 278.785C158.784 264.266 168.57 386.451 158.978 449.359C112.38 612.334 4.82756 524.286 2.36945 420.574C-0.0886568 316.862 -138.802 458.033 -202.943 345.878C-277.317 215.829 -101.933 296.935 42.9099 278.785Z" stroke="#CECECE" stroke-width="0.5"/>
<path opacity="0.2575" d="M41.8371 284.225C157.134 265.67 171.178 387.44 163.788 450.644C122.906 615.146 12.3458 530.905 6.26975 427.342C0.193649 323.779 -133.508 469.705 -201.525 359.857C-280.392 232.483 -102.284 307.419 41.8371 284.225Z" stroke="#CECECE" stroke-width="0.5"/>
<path opacity="0.21625" d="M40.9545 289.698C155.534 267.131 173.819 388.336 168.639 451.76C133.523 617.589 20.0902 537.257 10.4035 433.969C0.716823 330.682 -127.811 481.185 -199.619 373.777C-282.884 249.233 -102.27 317.908 40.9545 289.698Z" stroke="#CECECE" stroke-width="0.5"/>
<path opacity="0.175" d="M40.2642 295.199C153.986 268.647 176.49 389.14 173.527 452.706C144.219 619.659 28.0522 543.335 14.7668 440.449C1.48131 337.562 -121.716 492.459 -197.229 387.623C-284.789 266.061 -101.888 328.39 40.2642 295.199Z" stroke="#CECECE" stroke-width="0.5"/>
<path opacity="0.13375" d="M39.7659 300.721C152.492 270.216 179.187 389.851 178.444 453.481C154.981 621.356 36.2212 549.132 19.3531 446.772C2.48508 344.412 -115.231 503.514 -194.357 401.377C-286.107 282.945 -101.142 338.853 39.7659 300.721Z" stroke="#CECECE" stroke-width="0.5"/>
<path opacity="0.0925" d="M39.4606 306.257C151.053 271.836 181.908 390.466 183.386 454.084C165.796 622.675 44.5875 554.64 24.1574 452.931C3.72729 351.222 -108.365 514.336 -191.007 415.022C-286.834 299.864 -100.03 349.283 39.4606 306.257Z" stroke="#CECECE" stroke-width="0.5"/>
<path opacity="0.05125" d="M39.3487 311.8C149.672 273.506 184.648 390.987 188.345 454.514C176.65 623.616 53.1409 559.853 29.1737 458.919C5.20641 357.985 -101.125 524.911 -187.182 428.542C-286.97 316.798 -98.5558 359.668 39.3487 311.8Z" stroke="#CECECE" stroke-width="0.5"/>
<path opacity="0.01" d="M39.4304 317.344C148.35 275.222 187.405 391.411 193.317 454.771C187.53 624.178 61.8711 564.764 34.3959 464.728C6.92066 364.692 -93.52 535.227 -182.889 441.92C-286.515 333.727 -96.7195 369.995 39.4304 317.344Z" stroke="#CECECE" stroke-width="0.5"/>
</svg>
