<svg version="1.1" id="Layer_1" xmlns="http://www.w3.org/2000/svg" xmlns:xlink="http://www.w3.org/1999/xlink" x="0px" y="0px"
	 width="100%" viewBox="0 0 1024 1024" enable-background="new 0 0 1024 1024" xml:space="preserve">
<path fill="#000000" opacity="1.000000" stroke="none" 
	d="
M443.285614,694.744873 
	C415.727448,676.549316 385.840698,665.283081 353.592499,660.655640 
	C327.391907,656.896118 301.127869,657.867554 274.961884,661.666565 
	C274.140259,661.785889 273.340576,662.092224 272.517914,662.162781 
	C262.500916,663.021912 253.978348,662.033142 255.727676,647.005371 
	C257.302765,633.474243 259.259186,619.985596 261.182373,606.497437 
	C264.630554,582.314148 268.194824,558.147522 271.680542,533.969543 
	C273.246063,523.110779 274.623657,512.223389 276.330170,501.387421 
	C276.903107,497.749359 276.231781,496.015869 272.182922,496.221893 
	C269.722260,496.347107 267.170258,496.082947 264.761078,495.541077 
	C258.543518,494.142822 255.401978,490.058075 255.722229,484.224060 
	C256.064453,477.989380 259.506378,474.342804 266.066742,473.579224 
	C269.530334,473.176056 273.037140,472.912750 276.518982,472.963043 
	C279.945251,473.012512 281.232391,471.358643 281.623047,468.227783 
	C282.857758,458.332733 284.046021,448.426910 285.579437,438.576172 
	C286.332306,433.739807 284.131683,432.963440 280.044556,432.942383 
	C271.417053,432.897980 266.645081,428.409729 266.681671,420.885651 
	C266.714813,414.071533 271.150238,409.875610 278.610413,409.722290 
	C290.932220,409.469055 303.255157,409.269958 315.577789,409.056946 
	C321.842468,408.948669 322.205841,408.463806 322.679535,402.216278 
	C323.697632,388.788818 325.477905,375.444885 327.221771,362.094727 
	C328.276337,354.021606 328.935120,345.894684 329.675873,337.783173 
	C330.575256,327.934387 335.164795,323.100800 344.981476,323.004059 
	C365.937317,322.797607 386.961975,321.835968 407.735535,325.666901 
	C444.350067,332.419098 474.658691,349.234039 495.379822,381.149780 
	C497.011597,383.663116 498.714722,386.131348 500.442749,388.579529 
	C500.687073,388.925690 501.263702,389.037262 502.050690,389.447021 
	C503.902863,386.485443 505.606323,383.477936 507.575836,380.656097 
	C529.184082,349.696777 559.636047,333.024536 595.983337,325.616638 
	C612.529785,322.244324 629.190613,323.754089 645.792908,323.679321 
	C696.424561,323.451324 747.058044,323.664825 797.690857,323.667236 
	C802.558899,323.667480 807.078918,324.461426 810.135254,328.649811 
	C815.866760,336.504242 810.674316,347.364777 800.768188,348.295593 
	C798.453979,348.513062 796.105835,348.393616 793.773438,348.390411 
	C756.448181,348.339111 719.122986,348.276459 681.797729,348.230286 
	C675.443970,348.222412 675.533203,348.242920 676.180298,354.492401 
	C677.942810,371.515015 679.769409,388.533630 681.224060,405.583405 
	C681.556702,409.482452 683.430237,409.722626 686.395630,409.716034 
	C708.224121,409.667542 730.052856,409.659668 751.881348,409.708557 
	C759.626770,409.725891 764.549072,413.494720 765.276062,419.707214 
	C766.144287,427.125946 760.846619,433.094299 752.748169,433.270691 
	C742.755432,433.488373 732.751404,433.462158 722.758179,433.254913 
	C718.365784,433.163818 716.925598,434.242615 717.755920,439.018402 
	C719.545227,449.310577 720.735107,459.713257 721.935120,470.097900 
	C722.317261,473.404816 723.520264,474.548645 726.948181,474.483978 
	C742.920166,474.182587 758.897400,474.165955 774.872314,474.005280 
	C777.723572,473.976624 780.541748,474.092804 783.274475,474.951324 
	C788.327026,476.538727 791.172668,480.427887 791.258606,485.782196 
	C791.351685,491.582062 788.729065,495.485535 783.620056,497.407776 
	C781.043457,498.377228 778.394653,498.360291 775.733276,498.349426 
	C761.070068,498.289490 746.406982,498.188721 731.743652,498.143982 
	C726.380066,498.127625 725.719666,498.966553 726.534485,504.346252 
	C732.059570,540.823914 737.724670,577.281311 743.025696,613.791565 
	C744.625122,624.807312 746.063293,635.838196 748.047424,646.797913 
	C749.857727,656.797729 743.624329,663.622070 733.582397,662.420410 
	C720.539673,660.859619 707.521545,659.185608 694.374695,658.735229 
	C669.727966,657.890747 645.648376,660.913635 621.913635,667.838867 
	C582.161011,679.437622 548.381653,700.980347 518.078247,728.595886 
	C512.163269,733.986267 506.051086,738.792297 497.176331,736.324768 
	C493.509338,735.305176 490.657135,733.159607 487.901093,730.675964 
	C473.785614,717.955383 459.345306,705.631409 443.285614,694.744873 
M652.698547,363.563049 
	C652.356445,360.088837 651.746765,356.614685 651.745667,353.140350 
	C651.744507,349.488953 650.241943,348.033783 646.679260,348.055542 
	C639.015808,348.102386 631.344910,348.179688 623.688660,347.911591 
	C601.475342,347.133667 580.781372,352.663544 561.289062,362.934265 
	C541.971191,373.113159 527.676453,388.049835 518.956787,408.273315 
	C514.422302,418.790222 513.240906,429.761932 513.238342,440.990021 
	C513.223999,505.150208 513.229919,569.310425 513.265320,633.470581 
	C513.266052,634.863708 512.664795,636.466492 514.084839,637.713379 
	C514.543274,637.461792 515.035583,637.304016 515.375122,636.984009 
	C516.343628,636.071167 517.304138,635.139099 518.172546,634.132507 
	C531.707275,618.444397 547.662048,605.738159 565.833435,595.863892 
	C596.631836,579.127991 629.682495,571.400818 664.661255,571.583496 
	C670.795776,571.615479 671.320801,571.189514 670.800293,565.000427 
	C669.183533,545.774414 667.300171,526.570496 665.752686,507.339233 
	C665.013062,498.147339 665.106995,497.995789 655.900391,497.927582 
	C646.243286,497.856049 636.557190,498.637695 626.937744,497.511444 
	C619.963196,496.694885 615.386719,491.484863 615.862976,485.631531 
	C616.405884,478.957275 621.145081,474.802551 628.336243,474.642975 
	C637.826721,474.432404 647.316162,474.047577 656.806641,474.028656 
	C660.775757,474.020752 662.124878,472.585083 661.732971,468.668182 
	C660.723022,458.574646 659.793457,448.467621 659.146423,438.345856 
	C658.879089,434.164612 656.981445,433.345276 653.140747,433.195160 
	C627.945312,432.210602 603.768433,436.658844 580.424316,446.043518 
	C577.349915,447.279449 574.206299,448.424316 570.774963,448.338531 
	C562.070374,448.120941 557.141296,439.595306 561.311401,432.015686 
	C563.371094,428.271942 566.702209,426.229218 570.488586,424.706116 
	C596.128357,414.392242 622.731506,409.235046 650.400513,409.673279 
	C656.564392,409.770905 657.148926,409.067993 656.573303,403.196167 
	C655.307739,390.288788 654.012512,377.384338 652.698547,363.563049 
M374.498505,347.084015 
	C371.332611,347.077728 368.166687,347.057129 365.000854,347.067657 
	C351.535706,347.112549 351.733246,347.123535 351.204865,360.800323 
	C351.024811,365.461182 352.355133,366.918182 357.003998,366.774292 
	C366.660065,366.475311 376.334991,366.577332 385.997406,366.762573 
	C392.685822,366.890808 397.111816,371.010284 397.923370,377.309509 
	C398.583099,382.430359 394.680389,387.563782 388.807037,389.442902 
	C386.705292,390.115356 384.583374,390.305054 382.404175,390.296997 
	C374.404755,390.267456 366.405273,390.274261 358.405792,390.255463 
	C348.755920,390.232758 348.760468,390.227783 348.161469,400.032135 
	C348.090393,401.195007 347.964752,402.356537 347.815125,403.512299 
	C347.021179,409.644623 347.068573,409.839539 353.250366,409.642059 
	C377.067474,408.881317 400.450012,411.351074 423.215149,418.689270 
	C437.234863,423.208435 450.529449,429.307312 462.985352,437.158203 
	C467.342072,439.904236 470.019196,443.852325 469.074219,449.325897 
	C468.276001,453.949310 463.755127,458.091797 458.695740,458.960266 
	C454.259369,459.721802 450.480255,457.554596 446.954315,455.502289 
	C416.769501,437.932678 384.051300,431.689850 349.507874,433.107544 
	C345.525970,433.270935 344.397858,434.953735 344.259155,438.601440 
	C344.038116,444.413544 343.648621,450.243530 342.872437,456.004242 
	C341.848541,463.603302 341.756958,463.717346 349.181274,463.719421 
	C362.846954,463.723236 376.513611,463.599976 390.177917,463.732849 
	C398.342163,463.812256 404.410126,469.401245 404.259155,476.256989 
	C404.109497,483.052551 398.268829,488.152527 390.331665,488.406525 
	C389.332672,488.438507 388.331940,488.420837 387.332031,488.418854 
	C373.499664,488.391602 359.661469,488.582825 345.837982,488.218079 
	C340.853882,488.086578 339.245422,489.630676 338.900726,494.571930 
	C337.639069,512.657654 335.674835,530.695679 334.505005,548.785889 
	C334.038788,555.996155 332.537415,563.220398 333.420776,570.992798 
	C395.311890,570.105164 448.700165,588.819519 489.427917,638.284180 
	C489.534637,636.099548 489.654175,634.793213 489.654297,633.486938 
	C489.660065,569.824951 489.715088,506.162811 489.572266,442.501099 
	C489.555542,435.041046 488.956909,427.499390 487.080444,420.215454 
	C480.441315,394.443939 463.759003,376.295868 441.637054,363.098999 
	C421.431305,351.045197 398.955963,346.616943 374.498505,347.084015 
M590.812805,611.382141 
	C564.244263,622.330078 542.452637,639.243286 526.455872,663.263733 
	C522.589050,669.070068 518.908020,675.041138 516.257324,681.544739 
	C515.792908,682.684143 515.028442,684.146912 516.729370,685.063110 
	C518.241333,685.877563 519.240662,684.880615 520.188782,683.900940 
	C520.651550,683.422729 521.078247,682.908203 521.503784,682.395630 
	C536.905396,663.844055 555.268311,648.752930 576.273865,637.098022 
	C606.311951,620.431396 638.492493,611.062561 673.048218,610.675842 
	C686.395569,610.526550 699.687622,610.961182 712.702087,614.401794 
	C714.161377,614.787537 715.806946,615.031189 716.841553,613.586365 
	C717.907471,612.097839 717.164734,610.741943 716.011230,609.606934 
	C714.328674,607.951477 713.988892,605.701965 713.934875,603.620117 
	C713.770020,597.270142 712.606628,591.059998 711.849182,584.787598 
	C708.639343,558.205872 705.653381,531.597107 702.526062,505.005280 
	C701.588867,497.036469 701.500732,497.193848 693.218384,497.224304 
	C689.681091,497.237335 688.580872,498.283295 689.014709,501.912628 
	C690.276794,512.470276 691.114136,523.077881 692.269775,533.649292 
	C694.420471,553.322632 696.632507,572.989685 698.920349,592.647522 
	C699.591370,598.412964 697.293579,600.892639 691.560242,599.702698 
	C681.745850,597.665649 671.828552,596.508118 661.834839,596.376038 
	C637.324524,596.052063 613.884521,601.048950 590.812805,611.382141 
M346.395752,610.829346 
	C351.351257,611.429321 356.331787,611.871765 361.258148,612.655029 
	C391.468933,617.458130 419.507141,627.786255 444.350189,645.942444 
	C448.049683,648.646118 451.376495,650.970947 456.073395,648.527588 
	C457.012115,648.039246 458.351776,647.686584 459.246521,649.468384 
	C455.466400,653.678284 458.075012,656.497131 461.463165,659.632935 
	C470.148529,667.671509 478.357849,676.180359 485.189941,685.920349 
	C486.151398,687.290955 486.941223,689.275818 489.436340,688.606323 
	C490.073578,685.702820 488.419769,683.434082 487.440155,681.046082 
	C481.341370,666.178894 471.529175,653.651245 460.327148,642.630005 
	C432.028503,614.787964 397.923676,598.945251 358.030090,596.147400 
	C342.329712,595.046326 326.795837,595.971497 311.350494,598.918640 
	C306.895020,599.768799 304.400665,597.631165 304.870789,593.313721 
	C305.842041,584.393311 307.007599,575.494141 308.078186,566.584412 
	C310.814667,543.810547 313.120636,520.992798 314.728851,498.111298 
	C315.222809,491.083099 314.728638,490.862671 308.059998,492.442200 
	C305.685638,493.004578 304.282532,494.091583 303.983643,496.693329 
	C303.528809,500.652618 302.704468,504.568024 302.183167,508.521332 
	C298.944611,533.079834 295.716125,557.639648 292.549530,582.207520 
	C291.153320,593.039978 289.735413,603.867981 287.388641,615.645874 
	C306.935516,609.628357 326.179291,609.937744 346.395752,610.829346 
M685.990784,433.392670 
	C682.957520,433.557831 683.223816,435.795044 683.404541,437.761658 
	C684.374878,448.321472 685.396606,458.876831 686.469238,469.426788 
	C686.692688,471.624573 687.187195,473.913025 690.088928,473.931702 
	C692.687195,473.948425 695.378235,474.467255 698.292908,472.932953 
	C696.897705,461.848480 695.141846,450.730621 694.244751,439.543915 
	C693.813904,434.172363 691.663147,432.594086 685.990784,433.392670 
M319.614471,433.759033 
	C310.751495,432.297607 310.050873,432.852570 309.240143,441.201691 
	C308.855804,445.159821 307.863831,449.078308 307.721283,453.035431 
	C307.551880,457.737549 305.427704,462.364532 306.659729,466.935913 
	C308.624359,467.914703 310.020416,466.713379 311.464966,466.840149 
	C316.495728,467.281616 318.153290,464.549316 318.407654,460.028595 
	C318.687042,455.062164 319.423859,450.120453 319.671906,445.153564 
	C319.851929,441.548187 321.561188,438.002655 319.614471,433.759033 
M670.518494,633.789368 
	C672.473267,633.651794 674.586975,634.348755 677.007996,632.720032 
	C672.448914,632.720032 668.655945,632.720032 664.863037,632.720032 
	C664.868408,633.000610 664.873779,633.281250 664.879089,633.561829 
	C666.485779,633.637878 668.092468,633.713928 670.518494,633.789368 
z"/>
<path fill="#000000" opacity="1.000000" stroke="none" 
	d="
M725.015442,390.281311 
	C719.887207,390.098358 715.213440,390.734192 710.643799,389.387085 
	C705.877991,387.982239 702.833618,384.034119 702.831055,379.068573 
	C702.828308,373.785248 705.847107,369.144836 710.421204,367.929810 
	C712.801697,367.297516 715.325317,366.964691 717.790222,366.931396 
	C728.427124,366.787781 739.066406,366.743042 749.704407,366.784027 
	C757.678894,366.814789 762.985168,371.603821 763.045227,378.595612 
	C763.098145,384.758240 757.307678,390.171997 749.944214,390.343414 
	C741.805115,390.532867 733.656616,390.319672 725.015442,390.281311 
z"/>
<path fill="#000000" opacity="1.000000" stroke="none" 
	d="
M207.498871,411.035736 
	C212.516006,413.872131 214.118103,418.016449 213.175232,423.052338 
	C212.223358,428.136444 208.819000,431.529388 203.873871,432.274536 
	C193.177872,433.886169 182.355408,433.866394 171.664658,432.260925 
	C166.120132,431.428284 162.984787,426.910004 162.697235,421.196899 
	C162.451263,416.310272 165.140732,411.504608 170.106659,410.790344 
	C182.397141,409.022583 194.799316,408.657501 207.498871,411.035736 
z"/>
<path fill="#000000" opacity="1.000000" stroke="none" 
	d="
M817.010742,409.670044 
	C822.173828,409.676910 826.839966,409.632507 831.504944,409.688354 
	C838.947449,409.777435 843.875122,413.886475 844.293945,420.268219 
	C844.738525,427.042664 839.922058,432.610107 832.352417,432.990509 
	C824.212341,433.399597 816.012024,433.355865 807.875671,432.873901 
	C800.494019,432.436615 795.845703,427.053986 796.200989,420.469391 
	C796.589478,413.269135 800.782593,409.713898 809.015503,409.636597 
	C811.514465,409.613129 814.014038,409.652924 817.010742,409.670044 
z"/>
<path fill="#000000" opacity="1.000000" stroke="none" 
	d="
M599.132935,389.871826 
	C597.784363,391.156738 596.800720,392.447723 595.499390,393.036530 
	C584.466187,398.028534 573.553040,403.331665 561.864624,406.717255 
	C558.898499,407.576355 556.019714,407.579498 553.117981,406.302460 
	C544.744568,402.617218 543.473389,393.683868 550.762634,388.076141 
	C553.224915,386.181854 556.159912,384.803650 559.042542,383.572937 
	C567.743042,379.858307 576.486755,376.237976 585.287903,372.769135 
	C590.184937,370.839020 594.833740,371.263123 598.325195,375.732849 
	C601.704773,380.059326 602.521484,384.685883 599.132935,389.871826 
z"/>
<path fill="#000000" opacity="1.000000" stroke="none" 
	d="
M560.748352,515.875488 
	C556.611206,517.730103 552.942871,519.742126 548.854675,520.723022 
	C543.658569,521.969727 538.961365,520.008850 536.519165,515.559021 
	C533.912109,510.808807 534.344788,505.066345 538.783508,502.048737 
	C548.842773,495.210144 559.699890,489.661407 571.322021,485.982880 
	C575.994751,484.503906 581.837830,488.884186 583.601685,494.063477 
	C585.290039,499.021210 583.260010,504.204529 578.011108,507.111725 
	C572.479004,510.175812 566.735474,512.858154 560.748352,515.875488 
z"/>
<path fill="#000000" opacity="1.000000" stroke="none" 
	d="
M424.338837,539.773315 
	C420.126190,537.669739 416.106720,535.984314 412.400513,533.773621 
	C406.395905,530.192017 405.128113,525.199402 408.156799,518.756409 
	C410.442444,513.894104 415.953644,511.858276 421.823578,514.005127 
	C428.244202,516.353333 434.396057,519.326233 440.300385,522.789062 
	C445.879669,526.061279 447.739044,530.816956 445.555695,536.199951 
	C443.413635,541.481079 437.765991,544.427734 432.069061,542.926758 
	C429.519653,542.255005 427.133118,540.965088 424.338837,539.773315 
z"/>
<path fill="#000000" opacity="1.000000" stroke="none" 
	d="
M374.282074,509.452209 
	C378.811523,514.321960 379.359222,517.526672 376.586853,521.604065 
	C374.065521,525.312195 370.566040,526.166504 366.550720,524.624023 
	C361.564362,522.708557 359.745483,517.329285 362.129791,512.150085 
	C364.128723,507.807983 368.766815,506.652924 374.282074,509.452209 
z"/>
</svg>