<?xml version="1.0" encoding="UTF-8"?>
<svg enable-background="new 0 0 1024 1024" version="1.1" viewBox="0 0 1024 1024" xml:space="preserve" xmlns="http://www.w3.org/2000/svg">
<path d="m443.29 694.74c-27.558-18.196-57.445-29.462-89.693-34.089-26.201-3.7595-52.465-2.7881-78.631 1.0109-0.82162 0.11932-1.6213 0.42566-2.444 0.49622-10.017 0.85913-18.54-0.12964-16.79-15.157 1.5751-13.531 3.5315-27.02 5.4547-40.508 3.4482-24.183 7.0125-48.35 10.498-72.528 1.5655-10.859 2.9431-21.746 4.6496-32.582 0.57294-3.6381-0.098389-5.3716-4.1472-5.1655-2.4607 0.12521-5.0127-0.13895-7.4218-0.68082-6.2176-1.3983-9.3591-5.483-9.0388-11.317 0.34222-6.2347 3.7841-9.8813 10.345-10.645 3.4636-0.40317 6.9704-0.66647 10.452-0.61618 3.4263 0.049469 4.7134-1.6044 5.1041-4.7353 1.2347-9.895 2.423-19.801 3.9564-29.652 0.75287-4.8364-1.4478-5.6127-5.5349-5.6338-8.6275-0.044403-13.399-4.5327-13.363-12.057 0.033142-6.8141 4.4686-11.01 11.929-11.163 12.322-0.25324 24.645-0.45233 36.967-0.66534 6.2647-0.10828 6.6281-0.59314 7.1017-6.8407 1.0181-13.427 2.7984-26.771 4.5422-40.122 1.0546-8.0731 1.7133-16.2 2.4541-24.312 0.89938-9.8488 5.4889-14.682 15.306-14.779 20.956-0.20645 41.98-1.1681 62.754 2.6628 36.615 6.7522 66.923 23.567 87.644 55.483 1.6318 2.5133 3.3349 4.9816 5.0629 7.4297 0.24432 0.34616 0.82095 0.45773 1.6079 0.86749 1.8522-2.9616 3.5556-5.9691 5.5251-8.7909 21.608-30.959 52.06-47.632 88.408-55.039 16.546-3.3723 33.207-1.8625 49.81-1.9373 50.632-0.228 101.27-0.014496 151.9-0.012085 4.868 2.44e-4 9.3881 0.79419 12.444 4.9826 5.7315 7.8544 0.53906 18.715-9.3671 19.646-2.3142 0.21747-4.6624 0.098023-6.9948 0.094818-37.325-0.0513-74.65-0.11395-111.98-0.16012-6.3538-0.007874-6.2645 0.012634-5.6174 6.2621 1.7625 17.023 3.5891 34.041 5.0438 51.091 0.33264 3.899 2.2062 4.1392 5.1716 4.1326 21.828-0.048492 43.657-0.056366 65.486-0.007477 7.7454 0.017334 12.668 3.7862 13.395 9.9987 0.86822 7.4187-4.4294 13.387-12.528 13.563-9.9927 0.21768-19.997 0.19147-29.99-0.015778-4.3924-0.091095-5.8326 0.9877-5.0023 5.7635 1.7893 10.292 2.9792 20.695 4.1792 31.079 0.38214 3.3069 1.5851 4.4507 5.0131 4.3861 15.972-0.30139 31.949-0.31802 47.924-0.4787 2.8513-0.028656 5.6694 0.087524 8.4022 0.94604 5.0526 1.5874 7.8982 5.4766 7.9841 10.831 0.093079 5.7999-2.5295 9.7033-7.6386 11.626-2.5766 0.96945-5.2254 0.95252-7.8868 0.94165-14.663-0.059936-29.326-0.1607-43.99-0.20544-5.3636-0.016357-6.024 0.82257-5.2092 6.2023 5.5251 36.478 11.19 72.935 16.491 109.45 1.5994 11.016 3.0376 22.047 5.0217 33.006 1.8103 9.9998-4.4231 16.824-14.465 15.622-13.043-1.5608-26.061-3.2348-39.208-3.6852-24.647-0.84448-48.726 2.1784-72.461 9.1036-39.753 11.599-73.532 33.141-103.84 60.757-5.915 5.3904-12.027 10.196-20.902 7.7289-3.667-1.0196-6.5192-3.1652-9.2752-5.6488-14.115-12.721-28.556-25.045-44.615-35.931m209.41-331.18c-0.3421-3.4742-0.95178-6.9484-0.95288-10.423-0.00116-3.6514-1.5037-5.1066-5.0664-5.0848-7.6635 0.046844-15.334 0.12415-22.991-0.14395-22.213-0.77792-42.907 4.752-62.4 15.023-19.318 10.179-33.613 25.116-42.332 45.339-4.5345 10.517-5.7159 21.489-5.7184 32.717-0.014343 64.16-0.008423 128.32 0.026978 192.48 7.32e-4 1.3931-0.60052 2.9959 0.81952 4.2428 0.45844-0.25159 0.95074-0.40936 1.2903-0.72937 0.96851-0.91284 1.929-1.8449 2.7974-2.8515 13.535-15.688 29.49-28.394 47.661-38.269 30.798-16.736 63.849-24.463 98.828-24.28 6.1345 0.031983 6.6595-0.39398 6.139-6.5831-1.6168-19.226-3.5001-38.43-5.0476-57.661-0.73962-9.1919-0.64569-9.3434-9.8523-9.4117-9.6571-0.071533-19.343 0.71011-28.963-0.41614-6.9745-0.81656-11.551-6.0266-11.075-11.88 0.54291-6.6743 5.2821-10.829 12.473-10.989 9.4905-0.21057 18.98-0.5954 28.47-0.61432 3.9691-0.007904 5.3182-1.4436 4.9263-5.3605-1.0099-10.094-1.9395-20.201-2.5865-30.322-0.26733-4.1812-2.165-5.0006-6.0057-5.1507-25.195-0.98456-49.372 3.4637-72.716 12.848-3.0744 1.2359-6.218 2.3808-9.6494 2.295-8.7046-0.21759-13.634-8.7432-9.4636-16.323 2.0597-3.7437 5.3908-5.7865 9.1772-7.3096 25.64-10.314 52.243-15.471 79.912-15.033 6.1639 0.097626 6.7484-0.60529 6.1728-6.4771-1.2656-12.907-2.5608-25.812-3.8748-39.633m-278.2-16.479c-3.1659-0.006287-6.3318-0.026886-9.4977-0.016358-13.465 0.044892-13.268 0.055878-13.796 13.733-0.18005 4.6609 1.1503 6.1179 5.7991 5.974 9.6561-0.29898 19.331-0.19696 28.993-0.011719 6.6884 0.12824 11.114 4.2477 11.926 10.547 0.65973 5.1208-3.243 10.254-9.1163 12.133-2.1017 0.67245-4.2237 0.86215-6.4029 0.8541-7.9994-0.029541-15.999-0.022736-23.998-0.041534-9.6499-0.022705-9.6453-0.02768-10.244 9.7767-0.071076 1.1629-0.19672 2.3244-0.34634 3.4802-0.79395 6.1323-0.74655 6.3272 5.4352 6.1298 23.817-0.76074 47.2 1.709 69.965 9.0472 14.02 4.5192 27.314 10.618 39.77 18.469 4.3567 2.746 7.0338 6.6941 6.0889 12.168-0.79822 4.6234-5.3191 8.7659-10.378 9.6344-4.4364 0.76154-8.2155-1.4057-11.741-3.458-30.185-17.57-62.903-23.812-97.446-22.395-3.9819 0.16339-5.11 1.8462-5.2487 5.4939-0.22104 5.8121-0.61053 11.642-1.3867 17.403-1.0239 7.5991-1.1155 7.7131 6.3088 7.7152 13.666 0.003815 27.332-0.11944 40.997 0.013428 8.1642 0.079407 14.232 5.6684 14.081 12.524-0.14966 6.7956-5.9903 11.896-13.927 12.15-0.99899 0.031982-1.9997 0.014312-2.9996 0.012329-13.832-0.027252-27.671 0.16397-41.494-0.20078-4.9841-0.1315-6.5926 1.4126-6.9373 6.3539-1.2617 18.086-3.2259 36.124-4.3957 54.214-0.46622 7.2103-1.9676 14.435-1.0842 22.207 61.891-0.88763 115.28 17.827 156.01 67.291 0.10672-2.1846 0.22626-3.491 0.22638-4.7972 0.005768-63.662 0.060791-127.32-0.082031-190.99-0.016724-7.4601-0.61536-15.002-2.4918-22.286-6.6391-25.772-23.321-43.92-45.443-57.116-20.206-12.054-42.681-16.482-67.139-16.015m216.31 264.3c-26.569 10.948-48.36 27.861-64.357 51.882-3.8668 5.8063-7.5479 11.777-10.199 18.281-0.46442 1.1394-1.2289 2.6022 0.47205 3.5184 1.512 0.81445 2.5113-0.1825 3.4594-1.1622 0.46277-0.47821 0.88946-0.99274 1.315-1.5053 15.402-18.552 33.765-33.643 54.77-45.298 30.038-16.667 62.219-26.035 96.774-26.422 13.347-0.14929 26.639 0.28534 39.654 3.726 1.4593 0.38574 3.1049 0.6294 4.1395-0.81543 1.0659-1.4885 0.32318-2.8444-0.83032-3.9794-1.6826-1.6555-2.0223-3.905-2.0764-5.9868-0.16486-6.35-1.3282-12.56-2.0857-18.833-3.2098-26.582-6.1958-53.19-9.3231-79.782-0.9372-7.9688-1.0253-7.8114-9.3077-7.781-3.5373 0.013031-4.6375 1.059-4.2037 4.6883 1.2621 10.558 2.0994 21.165 3.2551 31.737 2.1507 19.673 4.3627 39.34 6.6506 58.998 0.67102 5.7654-1.6268 8.2451-7.3601 7.0552-9.8144-2.037-19.732-3.1946-29.725-3.3267-24.51-0.32398-47.95 4.6729-71.022 15.006m-244.42-0.5528c4.9555 0.59998 9.936 1.0424 14.862 1.8257 30.211 4.8031 58.249 15.131 83.092 33.287 3.6995 2.7037 7.0263 5.0285 11.723 2.5851 0.93872-0.48834 2.2784-0.841 3.1731 0.9408-3.7801 4.2099-1.1715 7.0287 2.2166 10.165 8.6854 8.0386 16.895 16.547 23.727 26.287 0.96146 1.3706 1.7513 3.3555 4.2464 2.686 0.63724-2.9035-1.0166-5.1722-1.9962-7.5602-6.0988-14.867-15.911-27.395-27.113-38.416-28.299-27.842-62.403-43.685-102.3-46.483-15.7-1.1011-31.234-0.1759-46.68 2.7712-4.4555 0.85016-6.9498-1.2875-6.4797-5.6049 0.97125-8.9204 2.1368-17.82 3.2074-26.729 2.7365-22.774 5.0424-45.592 6.6507-68.473 0.49396-7.0282-2.13e-4 -7.2486-6.6689-5.6691-2.3744 0.56238-3.7775 1.6494-4.0764 4.2511-0.45483 3.9593-1.2792 7.8747-1.8005 11.828-3.2386 24.559-6.467 49.118-9.6336 73.686-1.3962 10.832-2.8141 21.66-5.1609 33.438 19.547-6.0175 38.791-5.7081 59.007-4.8165m339.6-177.44c-3.0333 0.16516-2.767 2.4024-2.5862 4.369 0.97034 10.56 1.9921 21.115 3.0647 31.665 0.22345 2.1978 0.71796 4.4862 3.6197 4.5049 2.5983 0.016723 5.2893 0.53555 8.204-0.99875-1.3952-11.084-3.1511-22.202-4.0482-33.389-0.43085-5.3716-2.5816-6.9498-8.254-6.1512m-366.38 0.36636c-8.863-1.4614-9.5636-0.90646-10.374 7.4427-0.38434 3.9581-1.3763 7.8766-1.5189 11.834-0.1694 4.7021-2.2936 9.3291-1.0616 13.9 1.9646 0.97879 3.3607-0.22253 4.8052-0.095764 5.0308 0.44147 6.6883-2.2908 6.9427-6.8116 0.27939-4.9664 1.0162-9.9081 1.2643-14.875 0.18002-3.6054 1.8893-7.1509-0.057435-11.395m350.9 200.03c1.9548-0.13757 4.0685 0.55939 6.4895-1.0693h-12.145c0.005371 0.28058 0.010742 0.56122 0.016052 0.8418 1.6067 0.076049 3.2134 0.1521 5.6394 0.22754z" fill="#4f1e0a"/>

</svg>
