<svg width="36" height="41" viewBox="0 0 36 41" fill="none" xmlns="http://www.w3.org/2000/svg">
<path d="M15.1364 26.7502L18.9724 24.9132L21.5269 26.441C24.0859 26.6622 25.0292 26.2089 26.1402 24.7295C26.1402 24.7295 27.6596 25.3542 28.8449 24.4827C30.0302 23.6111 29.6322 21.9739 29.6322 21.9739C29.6322 21.9739 31.0144 22.566 32.1947 21.0813C33.3751 19.5966 32.7567 18.2998 32.7567 18.2998C32.7567 18.2998 33.947 17.8058 33.9985 15.7731C34.05 13.7404 32.7567 12.9723 32.7567 12.9723C32.7567 12.9723 33.1798 12.2687 32.504 10.8257C31.8282 9.38269 30.735 9.6656 30.735 9.6656C30.735 9.6656 32.0867 7.47586 30.391 5.10522C28.6953 2.73458 26.1402 3.0522 26.1402 3.0522C26.1402 3.0522 26.4227 1.98001 24.9797 1.0339C23.5367 0.0877879 22.2806 0.847734 22.2806 0.847734C22.2806 0.847734 20.8569 -0.254494 18.9724 0.0547147C17.088 0.363923 16.0318 2.50108 16.0318 2.50108C16.0318 2.50108 14.6186 1.32979 12.302 2.06461C9.98533 2.79943 10.1505 5.25667 10.1505 5.25667C10.1505 5.25667 8.18283 5.25562 6.68457 6.90897C5.18631 8.56232 5.73954 10.9515 5.73954 10.9515C5.73954 10.9515 4.41699 11.4262 4.05624 13.5571C3.69549 15.6879 5.18817 16.4627 5.18817 16.4627C5.18817 16.4627 4.05624 17.1144 4.05624 18.9168C4.05624 20.7191 5.73954 21.0553 5.73954 21.0553C5.73954 21.0553 4.76036 21.9556 6.11767 23.4519C7.47499 24.9482 9.04776 23.8109 9.04776 23.8109C9.04776 23.8109 9.31289 24.8655 10.4467 25.5134C11.5805 26.1612 12.8173 25.5134 12.8173 25.5134C12.8173 26.7502 13.8314 27.0089 15.1364 26.7502Z" fill="#7780A1"/>
<path d="M14.0745 20.5579C14.0745 19.6141 14.8396 18.8489 15.7835 18.8489H20.1881C21.132 18.8489 21.8972 19.614 21.8972 20.5579V31.4532C21.8972 32.3971 21.132 33.1623 20.1881 33.1623H15.7835C14.8396 33.1623 14.0745 32.3971 14.0745 31.4532V20.5579Z" fill="white"/>
<path fill-rule="evenodd" clip-rule="evenodd" d="M20.1881 19.2822H15.7835C15.0789 19.2822 14.5078 19.8534 14.5078 20.5579V31.4532C14.5078 32.1578 15.0789 32.729 15.7835 32.729H20.1881C20.8927 32.729 21.4639 32.1578 21.4639 31.4532V20.5579C21.4639 19.8534 20.8927 19.2822 20.1881 19.2822ZM15.7835 18.8489C14.8396 18.8489 14.0745 19.6141 14.0745 20.5579V31.4532C14.0745 32.3971 14.8396 33.1623 15.7835 33.1623H20.1881C21.132 33.1623 21.8972 32.3971 21.8972 31.4532V20.5579C21.8972 19.614 21.132 18.8489 20.1881 18.8489H15.7835Z" fill="#7780A1"/>
<path d="M14.4965 28.0171V23.5804H21.9281C21.3683 25.8556 18.0309 28.1399 14.4965 28.0171Z" fill="#7D8496" fill-opacity="0.5"/>
<path d="M13.4239 18.7947C13.4239 20.2006 12.163 21.3404 10.6075 21.3404C9.05194 21.3404 7.79095 20.2006 7.79095 18.7947C7.79095 17.3888 9.05194 16.249 10.6075 16.249C12.163 16.249 13.4239 17.3888 13.4239 18.7947Z" fill="white"/>
<path fill-rule="evenodd" clip-rule="evenodd" d="M10.6075 20.9071C11.9659 20.9071 12.9906 19.9212 12.9906 18.7947C12.9906 17.6682 11.9659 16.6823 10.6075 16.6823C9.249 16.6823 8.22426 17.6682 8.22426 18.7947C8.22426 19.9212 9.249 20.9071 10.6075 20.9071ZM10.6075 21.3404C12.163 21.3404 13.4239 20.2006 13.4239 18.7947C13.4239 17.3888 12.163 16.249 10.6075 16.249C9.05194 16.249 7.79095 17.3888 7.79095 18.7947C7.79095 20.2006 9.05194 21.3404 10.6075 21.3404Z" fill="#7780A1"/>
<path d="M22.415 18.7947C22.415 20.2006 23.676 21.3404 25.2315 21.3404C26.787 21.3404 28.048 20.2006 28.048 18.7947C28.048 17.3888 26.787 16.249 25.2315 16.249C23.676 16.249 22.415 17.3888 22.415 18.7947Z" fill="white"/>
<path fill-rule="evenodd" clip-rule="evenodd" d="M25.2315 20.9071C23.8731 20.9071 22.8484 19.9212 22.8484 18.7947C22.8484 17.6682 23.8731 16.6823 25.2315 16.6823C26.59 16.6823 27.6147 17.6682 27.6147 18.7947C27.6147 19.9212 26.59 20.9071 25.2315 20.9071ZM25.2315 21.3404C23.676 21.3404 22.415 20.2006 22.415 18.7947C22.415 17.3888 23.676 16.249 25.2315 16.249C26.787 16.249 28.048 17.3888 28.048 18.7947C28.048 20.2006 26.787 21.3404 25.2315 21.3404Z" fill="#7780A1"/>
<path d="M25.3399 17.6856C25.3399 22.623 22.7181 25.3485 17.977 25.3485C13.2359 25.3485 10.4991 22.623 10.4991 17.6856C10.4991 12.7481 13.2359 7.36621 17.977 7.36621C22.7181 7.36621 25.3399 12.7481 25.3399 17.6856Z" fill="white"/>
<path fill-rule="evenodd" clip-rule="evenodd" d="M23.1239 23.0683C24.2713 21.8746 24.9066 20.081 24.9066 17.6856C24.9066 15.2852 24.2676 12.7891 23.0707 10.9069C21.8777 9.03079 20.1588 7.79952 17.977 7.79952C15.7933 7.79952 14.045 9.03281 12.8233 10.9106C11.5984 12.7936 10.9325 15.2887 10.9325 17.6856C10.9325 20.0762 11.5938 21.8695 12.7691 23.0648C13.9434 24.259 15.6886 24.9152 17.977 24.9152C20.265 24.9152 21.9792 24.2593 23.1239 23.0683ZM17.977 25.3485C22.7181 25.3485 25.3399 22.623 25.3399 17.6856C25.3399 12.7481 22.7181 7.36621 17.977 7.36621C13.2359 7.36621 10.4991 12.7481 10.4991 17.6856C10.4991 22.623 13.2359 25.3485 17.977 25.3485Z" fill="#7780A1"/>
<path fill-rule="evenodd" clip-rule="evenodd" d="M18.0339 17.3407C18.1488 17.374 18.215 17.4941 18.1818 17.6091C17.9835 18.2941 17.8797 18.6544 17.8667 19.2969C18.0701 19.3705 18.2957 19.3936 18.676 19.3904C18.7956 19.3894 18.8934 19.4856 18.8944 19.6053C18.8954 19.7249 18.7992 19.8227 18.6796 19.8237C18.199 19.8277 17.8859 19.7936 17.5552 19.6354C17.4799 19.5994 17.432 19.5234 17.432 19.44C17.432 18.6413 17.5506 18.2313 17.7646 17.4919L17.7655 17.4886C17.7988 17.3737 17.9189 17.3075 18.0339 17.3407Z" fill="#7780A1"/>
<path d="M14.8902 17.7332C14.8902 18.2731 14.562 18.7107 14.1571 18.7107C13.7522 18.7107 13.424 18.2731 13.424 17.7332C13.424 17.1934 13.7522 16.7557 14.1571 16.7557C14.562 16.7557 14.8902 17.1934 14.8902 17.7332Z" fill="#7780A1"/>
<path fill-rule="evenodd" clip-rule="evenodd" d="M14.7621 18.4895C14.6141 18.6869 14.4012 18.8191 14.1571 18.8191C13.9129 18.8191 13.7001 18.6869 13.552 18.4895C13.404 18.2921 13.3156 18.0244 13.3156 17.7333C13.3156 17.4422 13.404 17.1745 13.552 16.9771C13.7001 16.7797 13.9129 16.6475 14.1571 16.6475C14.4012 16.6475 14.6141 16.7797 14.7621 16.9771C14.9102 17.1745 14.9985 17.4422 14.9985 17.7333C14.9985 18.0244 14.9102 18.2921 14.7621 18.4895ZM14.1571 18.7108C14.562 18.7108 14.8902 18.2731 14.8902 17.7333C14.8902 17.1934 14.562 16.7558 14.1571 16.7558C13.7522 16.7558 13.4239 17.1934 13.4239 17.7333C13.4239 18.2731 13.7522 18.7108 14.1571 18.7108Z" fill="#7780A1"/>
<path d="M14.6823 17.4934C14.6823 17.613 14.5853 17.71 14.4656 17.71C14.346 17.71 14.249 17.613 14.249 17.4934C14.249 17.3737 14.346 17.2767 14.4656 17.2767C14.5853 17.2767 14.6823 17.3737 14.6823 17.4934Z" fill="white"/>
<path fill-rule="evenodd" clip-rule="evenodd" d="M14.7906 17.4933C14.7906 17.6728 14.6451 17.8183 14.4656 17.8183C14.2861 17.8183 14.1406 17.6728 14.1406 17.4933C14.1406 17.3138 14.2861 17.1683 14.4656 17.1683C14.6451 17.1683 14.7906 17.3138 14.7906 17.4933ZM14.4656 17.71C14.5853 17.71 14.6823 17.613 14.6823 17.4933C14.6823 17.3737 14.5853 17.2767 14.4656 17.2767C14.346 17.2767 14.249 17.3737 14.249 17.4933C14.249 17.613 14.346 17.71 14.4656 17.71Z" fill="#7780A1"/>
<path d="M22.6897 17.7332C22.6897 18.2731 22.3615 18.7107 21.9566 18.7107C21.5517 18.7107 21.2234 18.2731 21.2234 17.7332C21.2234 17.1934 21.5517 16.7557 21.9566 16.7557C22.3615 16.7557 22.6897 17.1934 22.6897 17.7332Z" fill="#7780A1"/>
<path fill-rule="evenodd" clip-rule="evenodd" d="M22.5616 18.4895C22.4136 18.6869 22.2007 18.8191 21.9566 18.8191C21.7124 18.8191 21.4996 18.6869 21.3515 18.4895C21.2035 18.2921 21.1151 18.0244 21.1151 17.7333C21.1151 17.4422 21.2035 17.1745 21.3515 16.9771C21.4996 16.7797 21.7124 16.6475 21.9566 16.6475C22.2007 16.6475 22.4136 16.7797 22.5616 16.9771C22.7097 17.1745 22.798 17.4422 22.798 17.7333C22.798 18.0244 22.7097 18.2921 22.5616 18.4895ZM21.9566 18.7108C22.3615 18.7108 22.6897 18.2731 22.6897 17.7333C22.6897 17.1934 22.3615 16.7558 21.9566 16.7558C21.5517 16.7558 21.2234 17.1934 21.2234 17.7333C21.2234 18.2731 21.5517 18.7108 21.9566 18.7108Z" fill="#7780A1"/>
<path d="M22.4818 17.4934C22.4818 17.613 22.3848 17.71 22.2651 17.71C22.1455 17.71 22.0485 17.613 22.0485 17.4934C22.0485 17.3737 22.1455 17.2767 22.2651 17.2767C22.3848 17.2767 22.4818 17.3737 22.4818 17.4934Z" fill="white"/>
<path fill-rule="evenodd" clip-rule="evenodd" d="M16.9698 21.1186C17.0625 21.0428 17.199 21.0564 17.2747 21.149C17.4171 21.323 17.669 21.5236 17.9536 21.5802C18.2155 21.6323 18.5439 21.5711 18.8892 21.149C18.965 21.0564 19.1015 21.0428 19.1941 21.1186C19.2867 21.1943 19.3004 21.3308 19.2246 21.4234C18.79 21.9546 18.3059 22.0921 17.8691 22.0052C17.455 21.9228 17.122 21.6466 16.9394 21.4234C16.8636 21.3308 16.8772 21.1943 16.9698 21.1186Z" fill="#7780A1"/>
<g opacity="0.3" filter="url(#filter0_f_874_19532)">
<path d="M14.7239 20.7446C14.7239 21.0737 14.2631 21.3404 13.6948 21.3404C13.1264 21.3404 12.6656 21.0737 12.6656 20.7446C12.6656 20.4156 13.1264 20.1488 13.6948 20.1488C14.2631 20.1488 14.7239 20.4156 14.7239 20.7446Z" fill="#7780A1"/>
</g>
<g opacity="0.3" filter="url(#filter1_f_874_19532)">
<path d="M23.2817 20.7446C23.2817 21.0737 22.8209 21.3404 22.2526 21.3404C21.6842 21.3404 21.2234 21.0737 21.2234 20.7446C21.2234 20.4156 21.6842 20.1488 22.2526 20.1488C22.8209 20.1488 23.2817 20.4156 23.2817 20.7446Z" fill="#7780A1"/>
</g>
<path d="M20.0319 10.7243C17.6648 15.3175 15.6593 16.2774 10.5533 16.7365C10.3366 9.37023 11.2207 8.31985 18.8945 7.14954C25.1388 9.23167 25.1361 11.1699 25.2857 16.7365C21.5412 15.6693 21.369 14.1694 20.0319 10.7243Z" fill="#7780A1"/>
<path d="M14.1115 28.1884C14.2707 28.1148 14.4602 28.1827 14.5479 28.3346C16.2158 31.2247 20.2289 30.9742 21.469 28.3772C21.55 28.2076 21.7516 28.1217 21.9228 28.1993C27.8028 30.8642 29.742 33.9119 30.7016 40.195C30.7315 40.3907 30.5798 40.5683 30.3819 40.5683H5.45955C5.26133 40.5683 5.10956 40.3897 5.14033 40.1939C6.17844 33.5866 8.57011 30.753 14.1115 28.1884Z" fill="white"/>
<path fill-rule="evenodd" clip-rule="evenodd" d="M14.2126 28.6192C11.5162 29.8755 9.62795 31.1799 8.28122 32.9386C6.9388 34.6917 6.10314 36.9374 5.58844 40.135H30.2539C29.7784 37.0857 29.0695 34.8674 27.8045 33.0918C26.5373 31.3132 24.6805 29.9352 21.8269 28.6317C20.4005 31.4803 16.0521 31.6942 14.2126 28.6192ZM14.5479 28.3346C14.4602 28.1827 14.2707 28.1148 14.1115 28.1884C8.57011 30.753 6.17844 33.5866 5.14033 40.1939C5.10956 40.3897 5.26133 40.5683 5.45955 40.5683H30.3819C30.5798 40.5683 30.7315 40.3907 30.7016 40.195C29.742 33.9119 27.8028 30.8642 21.9228 28.1993C21.7516 28.1217 21.55 28.2076 21.469 28.3772C20.2289 30.9742 16.2158 31.2247 14.5479 28.3346Z" fill="#47BDFF"/>
<path fill-rule="evenodd" clip-rule="evenodd" d="M11.15 30.3036C11.9603 29.7611 12.4377 29.5052 13.3165 29.0498V34.6646H22.9576V29.1738C23.8558 29.6276 24.3291 29.9378 25.1241 30.4728V34.6646C25.6027 34.6646 25.9907 35.0526 25.9907 35.5312V40.1351H9.95837V35.5312C9.95837 35.0526 10.3464 34.6646 10.825 34.6646H11.15V30.3036Z" fill="#47BDFF"/>
<path fill-rule="evenodd" clip-rule="evenodd" d="M11.6917 35.477C11.6374 35.477 11.5844 35.4823 11.5331 35.4924C11.5037 35.4982 11.4753 35.4792 11.4694 35.4498C11.4636 35.4205 11.4827 35.392 11.5121 35.3862C11.5702 35.3747 11.6303 35.3687 11.6917 35.3687H11.9011C11.9311 35.3687 11.9553 35.3929 11.9553 35.4228C11.9553 35.4527 11.9311 35.477 11.9011 35.477H11.6917ZM12.2658 35.4228C12.2658 35.3929 12.2901 35.3687 12.32 35.3687H12.7389C12.7688 35.3687 12.793 35.3929 12.793 35.4228C12.793 35.4527 12.7688 35.477 12.7389 35.477H12.32C12.2901 35.477 12.2658 35.4527 12.2658 35.4228ZM13.1036 35.4228C13.1036 35.3929 13.1278 35.3687 13.1577 35.3687H13.5766C13.6065 35.3687 13.6308 35.3929 13.6308 35.4228C13.6308 35.4527 13.6065 35.477 13.5766 35.477H13.1577C13.1278 35.477 13.1036 35.4527 13.1036 35.4228ZM13.9413 35.4228C13.9413 35.3929 13.9655 35.3687 13.9955 35.3687H14.4143C14.4442 35.3687 14.4685 35.3929 14.4685 35.4228C14.4685 35.4527 14.4442 35.477 14.4143 35.477H13.9955C13.9655 35.477 13.9413 35.4527 13.9413 35.4228ZM14.779 35.4228C14.779 35.3929 14.8033 35.3687 14.8332 35.3687H15.2521C15.282 35.3687 15.3062 35.3929 15.3062 35.4228C15.3062 35.4527 15.282 35.477 15.2521 35.477H14.8332C14.8033 35.477 14.779 35.4527 14.779 35.4228ZM15.6168 35.4228C15.6168 35.3929 15.641 35.3687 15.6709 35.3687H16.0898C16.1197 35.3687 16.1439 35.3929 16.1439 35.4228C16.1439 35.4527 16.1197 35.477 16.0898 35.477H15.6709C15.641 35.477 15.6168 35.4527 15.6168 35.4228ZM16.4545 35.4228C16.4545 35.3929 16.4787 35.3687 16.5086 35.3687H16.9275C16.9574 35.3687 16.9817 35.3929 16.9817 35.4228C16.9817 35.4527 16.9574 35.477 16.9275 35.477H16.5086C16.4787 35.477 16.4545 35.4527 16.4545 35.4228ZM17.2922 35.4228C17.2922 35.3929 17.3165 35.3687 17.3464 35.3687H17.7652C17.7951 35.3687 17.8194 35.3929 17.8194 35.4228C17.8194 35.4527 17.7951 35.477 17.7652 35.477H17.3464C17.3165 35.477 17.2922 35.4527 17.2922 35.4228ZM18.1299 35.4228C18.1299 35.3929 18.1542 35.3687 18.1841 35.3687H18.603C18.6329 35.3687 18.6571 35.3929 18.6571 35.4228C18.6571 35.4527 18.6329 35.477 18.603 35.477H18.1841C18.1542 35.477 18.1299 35.4527 18.1299 35.4228ZM18.9677 35.4228C18.9677 35.3929 18.9919 35.3687 19.0218 35.3687H19.4407C19.4706 35.3687 19.4948 35.3929 19.4948 35.4228C19.4948 35.4527 19.4706 35.477 19.4407 35.477H19.0218C18.9919 35.477 18.9677 35.4527 18.9677 35.4228ZM19.8054 35.4228C19.8054 35.3929 19.8296 35.3687 19.8595 35.3687H20.2784C20.3083 35.3687 20.3326 35.3929 20.3326 35.4228C20.3326 35.4527 20.3083 35.477 20.2784 35.477H19.8595C19.8296 35.477 19.8054 35.4527 19.8054 35.4228ZM20.6431 35.4228C20.6431 35.3929 20.6674 35.3687 20.6973 35.3687H21.1161C21.1461 35.3687 21.1703 35.3929 21.1703 35.4228C21.1703 35.4527 21.1461 35.477 21.1161 35.477H20.6973C20.6674 35.477 20.6431 35.4527 20.6431 35.4228ZM21.4808 35.4228C21.4808 35.3929 21.5051 35.3687 21.535 35.3687H21.9539C21.9838 35.3687 22.008 35.3929 22.008 35.4228C22.008 35.4527 21.9838 35.477 21.9539 35.477H21.535C21.5051 35.477 21.4808 35.4527 21.4808 35.4228ZM22.3186 35.4228C22.3186 35.3929 22.3428 35.3687 22.3727 35.3687H22.7916C22.8215 35.3687 22.8458 35.3929 22.8458 35.4228C22.8458 35.4527 22.8215 35.477 22.7916 35.477H22.3727C22.3428 35.477 22.3186 35.4527 22.3186 35.4228ZM23.1563 35.4228C23.1563 35.3929 23.1805 35.3687 23.2105 35.3687H23.6293C23.6592 35.3687 23.6835 35.3929 23.6835 35.4228C23.6835 35.4527 23.6592 35.477 23.6293 35.477H23.2105C23.1805 35.477 23.1563 35.4527 23.1563 35.4228ZM23.994 35.4228C23.994 35.3929 24.0183 35.3687 24.0482 35.3687H24.2576C24.319 35.3687 24.3791 35.3747 24.4373 35.3862C24.4666 35.392 24.4857 35.4205 24.4799 35.4498C24.4741 35.4792 24.4456 35.4982 24.4162 35.4924C24.365 35.4823 24.3119 35.477 24.2576 35.477H24.0482C24.0183 35.477 23.994 35.4527 23.994 35.4228ZM11.2552 35.5387C11.2719 35.5635 11.2652 35.5972 11.2403 35.6138C11.1517 35.6731 11.0754 35.7494 11.0161 35.8381C10.9994 35.8629 10.9658 35.8696 10.9409 35.8529C10.9161 35.8363 10.9094 35.8027 10.9261 35.7778C10.9933 35.6774 11.0797 35.591 11.1801 35.5238C11.2049 35.5071 11.2386 35.5138 11.2552 35.5387ZM24.6941 35.5387C24.7108 35.5138 24.7444 35.5071 24.7693 35.5238C24.8696 35.591 24.9561 35.6774 25.0233 35.7778C25.0399 35.8027 25.0333 35.8363 25.0084 35.8529C24.9835 35.8696 24.9499 35.8629 24.9333 35.8381C24.8739 35.7494 24.7976 35.6731 24.709 35.6138C24.6841 35.5972 24.6775 35.5635 24.6941 35.5387ZM10.8521 36.0672C10.8814 36.073 10.9005 36.1015 10.8947 36.1308C10.8846 36.1821 10.8793 36.2351 10.8793 36.2894V36.5298C10.8793 36.5597 10.855 36.5839 10.8251 36.5839C10.7952 36.5839 10.7709 36.5597 10.7709 36.5298V36.2894C10.7709 36.228 10.777 36.1679 10.7885 36.1098C10.7943 36.0804 10.8228 36.0614 10.8521 36.0672ZM25.0972 36.0672C25.1266 36.0614 25.1551 36.0804 25.1609 36.1098C25.1724 36.1679 25.1784 36.228 25.1784 36.2894V36.5298C25.1784 36.5597 25.1541 36.5839 25.1242 36.5839C25.0943 36.5839 25.0701 36.5597 25.0701 36.5298V36.2894C25.0701 36.2351 25.0647 36.1821 25.0546 36.1308C25.0488 36.1015 25.0679 36.073 25.0972 36.0672ZM10.8251 36.9563C10.855 36.9563 10.8793 36.9806 10.8793 37.0105V37.4912C10.8793 37.5211 10.855 37.5453 10.8251 37.5453C10.7952 37.5453 10.7709 37.5211 10.7709 37.4912V37.0105C10.7709 36.9806 10.7952 36.9563 10.8251 36.9563ZM25.1242 36.9563C25.1541 36.9563 25.1784 36.9806 25.1784 37.0105V37.4912C25.1784 37.5211 25.1541 37.5453 25.1242 37.5453C25.0943 37.5453 25.0701 37.5211 25.0701 37.4912V37.0105C25.0701 36.9806 25.0943 36.9563 25.1242 36.9563ZM10.8251 37.9177C10.855 37.9177 10.8793 37.942 10.8793 37.9719V38.4526C10.8793 38.4825 10.855 38.5067 10.8251 38.5067C10.7952 38.5067 10.7709 38.4825 10.7709 38.4526V37.9719C10.7709 37.942 10.7952 37.9177 10.8251 37.9177ZM25.1242 37.9177C25.1541 37.9177 25.1784 37.942 25.1784 37.9719V38.4526C25.1784 38.4825 25.1541 38.5067 25.1242 38.5067C25.0943 38.5067 25.0701 38.4825 25.0701 38.4526V37.9719C25.0701 37.942 25.0943 37.9177 25.1242 37.9177ZM10.8251 38.8791C10.855 38.8791 10.8793 38.9034 10.8793 38.9333V39.414C10.8793 39.4439 10.855 39.4681 10.8251 39.4681C10.7952 39.4681 10.7709 39.4439 10.7709 39.414V38.9333C10.7709 38.9034 10.7952 38.8791 10.8251 38.8791ZM25.1242 38.8791C25.1541 38.8791 25.1784 38.9034 25.1784 38.9333V39.414C25.1784 39.4439 25.1541 39.4681 25.1242 39.4681C25.0943 39.4681 25.0701 39.4439 25.0701 39.414V38.9333C25.0701 38.9034 25.0943 38.8791 25.1242 38.8791ZM10.8251 39.8405C10.855 39.8405 10.8793 39.8648 10.8793 39.8947V40.135C10.8793 40.1649 10.855 40.1892 10.8251 40.1892C10.7952 40.1892 10.7709 40.1649 10.7709 40.135V39.8947C10.7709 39.8648 10.7952 39.8405 10.8251 39.8405ZM25.1242 39.8405C25.1541 39.8405 25.1784 39.8648 25.1784 39.8947V40.135C25.1784 40.1649 25.1541 40.1892 25.1242 40.1892C25.0943 40.1892 25.0701 40.1649 25.0701 40.135V39.8947C25.0701 39.8648 25.0943 39.8405 25.1242 39.8405Z" fill="white"/>
<path fill-rule="evenodd" clip-rule="evenodd" d="M11.8537 34.6646C11.8238 34.6646 11.7996 34.6403 11.7996 34.6104L11.7996 34.3937C11.7996 34.3638 11.8238 34.3396 11.8537 34.3396C11.8836 34.3396 11.9079 34.3638 11.9079 34.3937L11.9079 34.6104C11.9079 34.6403 11.8836 34.6646 11.8537 34.6646ZM11.8537 34.0146C11.8238 34.0146 11.7996 33.9903 11.7996 33.9604L11.7996 33.5271C11.7996 33.4972 11.8238 33.473 11.8537 33.473C11.8836 33.473 11.9079 33.4972 11.9079 33.5271L11.9079 33.9604C11.9079 33.9903 11.8836 34.0146 11.8537 34.0146ZM11.8537 33.148C11.8238 33.148 11.7996 33.1237 11.7996 33.0938L11.7996 32.6605C11.7996 32.6306 11.8238 32.6063 11.8537 32.6063C11.8836 32.6063 11.9079 32.6306 11.9079 32.6605L11.9079 33.0938C11.9079 33.1237 11.8836 33.148 11.8537 33.148ZM11.8537 32.2814C11.8238 32.2814 11.7996 32.2571 11.7996 32.2272L11.7996 31.7939C11.7996 31.764 11.8238 31.7397 11.8537 31.7397C11.8836 31.7397 11.9079 31.764 11.9079 31.7939L11.9079 32.2272C11.9079 32.2571 11.8836 32.2814 11.8537 32.2814ZM11.8537 31.4147C11.8238 31.4147 11.7996 31.3905 11.7996 31.3606L11.7996 30.9273C11.7996 30.8974 11.8238 30.8731 11.8537 30.8731C11.8836 30.8731 11.9079 30.8974 11.9079 30.9273L11.9079 31.3606C11.9079 31.3905 11.8836 31.4147 11.8537 31.4147ZM11.8537 30.5481C11.8238 30.5481 11.7996 30.5239 11.7996 30.494L11.7996 30.2773C11.7996 30.2474 11.8238 30.2232 11.8537 30.2232C11.8836 30.2232 11.9079 30.2474 11.9079 30.2773L11.9079 30.494C11.9079 30.5239 11.8836 30.5481 11.8537 30.5481Z" fill="white"/>
<path fill-rule="evenodd" clip-rule="evenodd" d="M24.4193 34.6646C24.3894 34.6646 24.3651 34.6403 24.3651 34.6104L24.3651 34.3937C24.3651 34.3638 24.3894 34.3396 24.4193 34.3396C24.4492 34.3396 24.4734 34.3638 24.4734 34.3937L24.4734 34.6104C24.4734 34.6403 24.4492 34.6646 24.4193 34.6646ZM24.4193 34.0146C24.3894 34.0146 24.3651 33.9903 24.3651 33.9604L24.3651 33.5271C24.3651 33.4972 24.3894 33.473 24.4193 33.473C24.4492 33.473 24.4734 33.4972 24.4734 33.5271L24.4734 33.9604C24.4734 33.9903 24.4492 34.0146 24.4193 34.0146ZM24.4193 33.148C24.3894 33.148 24.3651 33.1237 24.3651 33.0938L24.3651 32.6605C24.3651 32.6306 24.3894 32.6063 24.4193 32.6063C24.4492 32.6063 24.4734 32.6306 24.4734 32.6605L24.4734 33.0938C24.4734 33.1237 24.4492 33.148 24.4193 33.148ZM24.4193 32.2814C24.3894 32.2814 24.3651 32.2571 24.3651 32.2272L24.3651 31.7939C24.3651 31.764 24.3894 31.7397 24.4193 31.7397C24.4492 31.7397 24.4734 31.764 24.4734 31.7939L24.4734 32.2272C24.4734 32.2571 24.4492 32.2814 24.4193 32.2814ZM24.4193 31.4147C24.3894 31.4147 24.3651 31.3905 24.3651 31.3606L24.3651 30.9273C24.3651 30.8974 24.3894 30.8731 24.4193 30.8731C24.4492 30.8731 24.4734 30.8974 24.4734 30.9273L24.4734 31.3606C24.4734 31.3905 24.4492 31.4147 24.4193 31.4147ZM24.4193 30.5481C24.3894 30.5481 24.3651 30.5239 24.3651 30.494L24.3651 30.2773C24.3651 30.2474 24.3894 30.2232 24.4193 30.2232C24.4492 30.2232 24.4734 30.2474 24.4734 30.2773L24.4734 30.494C24.4734 30.5239 24.4492 30.5481 24.4193 30.5481Z" fill="white"/>
<path d="M12.5579 35.3145C12.5579 35.6735 12.2669 35.9645 11.908 35.9645C11.549 35.9645 11.258 35.6735 11.258 35.3145C11.258 34.9555 11.549 34.6646 11.908 34.6646C12.2669 34.6646 12.5579 34.9555 12.5579 35.3145Z" fill="white"/>
<path d="M24.9072 35.3145C24.9072 35.6735 24.6162 35.9645 24.2573 35.9645C23.8983 35.9645 23.6073 35.6735 23.6073 35.3145C23.6073 34.9555 23.8983 34.6646 24.2573 34.6646C24.6162 34.6646 24.9072 34.9555 24.9072 35.3145Z" fill="white"/>
<path opacity="0.5" d="M13.8578 38.131C13.8578 37.4729 14.3913 36.9395 15.0494 36.9395H20.7908C21.4489 36.9395 21.9824 37.4729 21.9824 38.131V40.1893H13.8578V38.131Z" fill="white"/>
<defs>
<filter id="filter0_f_874_19532" x="0.665649" y="8.1488" width="26.0582" height="25.1917" filterUnits="userSpaceOnUse" color-interpolation-filters="sRGB">
<feFlood flood-opacity="0" result="BackgroundImageFix"/>
<feBlend mode="normal" in="SourceGraphic" in2="BackgroundImageFix" result="shape"/>
<feGaussianBlur stdDeviation="6" result="effect1_foregroundBlur_874_19532"/>
</filter>
<filter id="filter1_f_874_19532" x="9.22345" y="8.1488" width="26.0582" height="25.1917" filterUnits="userSpaceOnUse" color-interpolation-filters="sRGB">
<feFlood flood-opacity="0" result="BackgroundImageFix"/>
<feBlend mode="normal" in="SourceGraphic" in2="BackgroundImageFix" result="shape"/>
<feGaussianBlur stdDeviation="6" result="effect1_foregroundBlur_874_19532"/>
</filter>
</defs>
</svg>
